<?xml version="1.0" encoding="utf-8" ?>
<svg baseProfile="full" height="200mm" version="1.1" viewBox="0,0,200,200" width="200mm" xmlns="http://www.w3.org/2000/svg" xmlns:ev="http://www.w3.org/2001/xml-events" xmlns:xlink="http://www.w3.org/1999/xlink"><defs /><rect fill="#1a1a1a" height="200" width="200" x="0" y="0" /><text alignment-baseline="middle" fill="#e1ed5e" style="dominant-baseline: central; font-size:9.0px; font-family:Arial;" text-anchor="middle" x="100.0" y="100.0">2024</text><line stroke="#e1ed5e" stroke-width="0.3" x1="100.0" x2="100.0" y1="15.0" y2="10.0" /><path d="M 100.0 14.0 a86.0,86.0 0 0,1 42.35913384403234,11.155469271406648" fill="none" id="id73" stroke="none" /><text fill="#e1ed5e" style="font-size:6.75px; font-family:Arial;" text-anchor="middle"><textPath startOffset="22.145653131862478" xlink:href="#id73">January</textPath></text><path d="M 108.4095320186766 80.7573450057729 l 17.047317672239206 -39.00759897404048 a63.56998728608928,63.56998728608928 0 0,0 0.9961919426899944,0.44558398491527146 l -17.714423017784835 38.70921123821535" fill="#33ff4e" stroke="none" /><path d="M 109.06512990194946 81.05736502329252 l 6.610341989417023 -13.813072369740784 a36.3133141255819,36.3133141255819 0 0,0 0.5599854568998428,0.2739169481988112 l -6.846487695578933 13.69756167144475" fill="#ffa90f" stroke="none" /><path d="M 109.3889696526874 81.21577127319529 l 14.934058678592548 -29.878121286493997 a54.402518471308284,54.402518471308284 0 0,0 0.8317698929219666,0.4247076339210842 l -15.444755793228094 29.617355700900077" fill="#76ff27" stroke="none" /><line stroke="#e1ed5e" stroke-width="0.3" x1="143.13028292997686" x2="145.6673583964461" y1="26.7553504044142" y2="22.446841604673864" /><path d="M 143.63769802327073 25.89364864446614 a86.0,86.0 0 0,1 29.32050498858742,28.57503671076993" fill="none" id="id74" stroke="none" /><text fill="#e1ed5e" style="font-size:6.75px; font-family:Arial;" text-anchor="middle"><textPath startOffset="20.669276256404974" xlink:href="#id74">February</textPath></text><path d="M 116.57777611688842 87.10902102172516 l 23.47730851885828 -18.256097105495268 a50.7400251650016,50.7400251650016 0 0,0 0.5287787703025388,0.6921883843525869 l -23.787239266515126 17.8503878079018" fill="#a0ff22" stroke="none" /><path d="M 117.01052211995028 87.68569379921539 l 11.117848108521738 -8.04846464657199 a34.72531710858731,34.72531710858731 0 0,0 0.3454092591782444,0.485861379820811 l -11.254372466229944 7.856426040041676" fill="#ff930d" stroke="none" /><path d="M 117.42321728460499 88.27688183743584 l 13.981392314897159 -9.407304719176713 a37.85160862180551,37.85160862180551 0 0,0 0.35810426574715987,0.5422155005082795 l -14.140821019565044 9.165909340329375" fill="#ffbe11" stroke="none" /><path d="M 117.62189284568427 88.57770195909679 l 25.002969938369922 -16.206623036738545 a50.796025506667405,50.796025506667405 0 0,0 0.46800629863143733,0.7357836352286481 l -25.27749392862725 15.775025726831226" fill="#9fff22" stroke="none" /><line stroke="#e1ed5e" stroke-width="0.3" x1="172.87174338648825" x2="177.1583165268699" y1="56.24261187166439" y2="53.66864786411523" /><path d="M 173.72905801456457 55.72781907015455 a86.0,86.0 0 0,1 12.242430191666344,42.057860355516425" fill="none" id="id75" stroke="none" /><text fill="#e1ed5e" style="font-size:6.75px; font-family:Arial;" text-anchor="middle"><textPath startOffset="22.145653131862474" xlink:href="#id75">March</textPath></text><path d="M 118.18653347947321 89.5 l 54.55960043841963 -31.500000000000007 a84.0,84.0 0 0,0 0.7102665399144961,1.2549729196035277 l -55.092300343355504 30.558770310297362" fill="#4dd2ff" stroke="none" /><path d="M 118.70294669586156 90.45014215332178 l 3.22113974931379 -1.6447369075290197 a24.61675279492495,24.61675279492495 0 0,0 0.1889395405681533,0.378005646716917 l -3.2488992030936807 1.5891994046483522" fill="#ff0000" stroke="none" /><path d="M 118.8641267826498 90.77261029715802 l 22.505007358058247 -11.008326839126529 a46.05311589370251,46.05311589370251 0 0,0 0.3412771461255312,0.7131379775989969 l -22.690663762143693 10.620376359462428" fill="#d7ff1c" stroke="none" /><path d="M 119.0197475246899 91.09779779509293 l 14.996596714257722 -7.019164484831611 a37.55797641848807,37.55797641848807 0 0,0 0.2682990443514689,0.5862818321762602 l -15.114880223464242 6.760693670440667" fill="#ffba11" stroke="none" /><path d="M 119.16976305983485 91.42560881287824 l 25.495845957687973 -11.403967602805471 a48.930066920506846,48.930066920506846 0 0,0 0.33637351495063944,0.7696884301071149 l -25.68785335465558 10.964617102922507" fill="#b5ff20" stroke="none" /><path d="M 119.31412917781788 91.75594674310238 l 29.208335464874207 -12.467301574968515 a52.75784106626017,52.75784106626017 0 0,0 0.3483880501877178,0.8360044942340618 l -29.41804935959841 11.964064571293175" fill="#89ff24" stroke="none" /><path d="M 119.4528033332814 92.08871423366111 l 31.85529986524793 -12.955273134089802 a55.38894054029193,55.38894054029193 0 0,0 0.3506418641737598,0.8838465539366732 l -32.07300040438781 12.406525562939564" fill="#6cff28" stroke="none" /><path d="M 119.71291397450082 92.76114493625339 l 30.1503815951873 -11.071637748053472 a53.11894569813168,53.11894569813168 0 0,0 0.3069764865414416,0.8586678675436182 l -30.335998251772686 10.552434924128939" fill="#85ff25" stroke="none" /><path d="M 119.83427380445688 93.10060997987247 l 41.90842163637462 -14.577924498164759 a65.37151886882333,65.37151886882333 0 0,0 0.3595887353955388,1.0630602014659007 l -42.152495793342524 13.856362622224697" fill="#35ff64" stroke="none" /><path d="M 120.05942366710727 93.78553927170692 l 14.448126344575694 -4.476066474083815 a36.12559175534099,36.12559175534099 0 0,0 0.17843234851955178,0.5939432562453445 l -14.522835013098874 4.227385614247748" fill="#ffa60f" stroke="none" /><path d="M 120.51834098615036 95.52812308129327 l 43.77061893136936 -9.539602672985042 a65.79811492455428,65.79811492455428 0 0,0 0.23105255323704896,1.1056701092051195 l -43.92792919543078 8.786816112494519" fill="#35ff69" stroke="none" /><path d="M 120.65975698304385 96.23510406497455 l 14.587171844691031 -2.6582686343633664 a35.82740619794935,35.82740619794935 0 0,0 0.10506844521336028,0.6060068711378833 l -14.630655107396626 2.4074687303048905" fill="#ffa20f" stroke="none" /><path d="M 120.93736805541906 98.37931529534042 l 35.366813123849276 -2.73761501114467 a56.472609242717425,56.472609242717425 0 0,0 0.06651945977799553,0.9671783461574309 l -35.40859654479233 2.130093240832905" fill="#60ff29" stroke="none" /><path d="M 120.96210409425399 98.7389718711861 l 20.667949108247658 -1.2433324953070377 a41.70531323199438,41.70531323199438 0 0,0 0.036856396419123034,0.7150042442655544 l -20.686247094123356 0.8883564576647526" fill="#fff016" stroke="none" /><path d="M 120.98066250479742 99.09900007780936 l 29.704456983140048 -1.2756371932680717 a50.73183504111488,50.73183504111488 0 0,0 0.029896301802764973,0.8703982072609596 l -29.721977971939662 0.765532721442992" fill="#a0ff22" stroke="none" /><line stroke="#e1ed5e" stroke-width="0.3" x1="184.99686870605535" x2="189.99668451229388" y1="99.2704041080226" y2="99.22748670261217" /><path d="M 185.99683186730306 99.26182062694052 a86.0,86.0 0 0,1 -10.086455211305974,41.156179273409016" fill="none" id="id76" stroke="none" /><text fill="#e1ed5e" style="font-size:6.75px; font-family:Arial;" text-anchor="middle"><textPath startOffset="21.40746469413373" xlink:href="#id76">April</textPath></text><path d="M 120.99922638620191 99.81974689727618 l 8.913157910877354 -0.07650874079622057 a29.91348627259019,29.91348627259019 0 0,0 0.0,0.5135236870400938 l -8.913157910877354 -0.07650874079621948" fill="#ff4f07" stroke="none" /><path d="M 120.98066250479742 100.90099992219065 l 30.14557791901925 1.2945808242812964 a51.17336255014111,51.17336255014111 0 0,0 -0.04522363195681752,0.8773263783718893 l -30.11891269760586 -1.8118789960299164" fill="#9bff22" stroke="none" /><path d="M 120.93736805541906 101.62068470465957 l 33.39030172890039 2.5846205288439124 a54.490185320853776,54.490185320853776 0 0,0 -0.08019496318077775,0.9319870329452662 l -33.34101314302187 -3.157428609164836" fill="#75ff27" stroke="none" /><line stroke="#e1ed5e" stroke-width="0.3" x1="174.33088141563837" x2="178.70328620479359" y1="141.23008692659167" y2="143.65538615756765" /><path d="M 175.20536237346943 141.71514677278685 a86.0,86.0 0 0,1 -30.301960400862466,31.631185727798858" fill="none" id="id77" stroke="none" /><text fill="#e1ed5e" style="font-size:6.75px; font-family:Arial;" text-anchor="middle"><textPath startOffset="22.145653131862474" xlink:href="#id77">May</textPath></text><line stroke="#e1ed5e" stroke-width="0.3" x1="143.1302829299769" x2="145.66735839644613" y1="173.24464959558577" y2="177.55315839532614" /><path d="M 143.63769802327073 174.10635135553383 a86.0,86.0 0 0,1 -40.68552437913181,11.842963189579606" fill="none" id="id78" stroke="none" /><text fill="#e1ed5e" style="font-size:6.75px; font-family:Arial;" text-anchor="middle"><textPath startOffset="21.407464694133747" xlink:href="#id78">June</textPath></text><line stroke="#e1ed5e" stroke-width="0.3" x1="101.45913802915013" x2="101.54496967792366" y1="184.9874750549273" y2="189.98673829345242" /><path d="M 101.47630435890484 185.9873277026323 a86.0,86.0 0 0,1 -42.54439059252881,-10.42667462771756" fill="none" id="id79" stroke="none" /><text fill="#e1ed5e" style="font-size:6.75px; font-family:Arial;" text-anchor="middle"><textPath startOffset="22.145653131862474" xlink:href="#id79">July</textPath></text><line stroke="#e1ed5e" stroke-width="0.3" x1="58.13341422392154" x2="55.67067388415222" y1="173.97424548756322" y2="178.32567169271397" /><path d="M 57.64086615596768 174.84453072859336 a86.0,86.0 0 0,1 -31.369924170532247,-30.572349798747897" fill="none" id="id80" stroke="none" /><text fill="#e1ed5e" style="font-size:6.75px; font-family:Arial;" text-anchor="middle"><textPath startOffset="22.145653131862474" xlink:href="#id80">August</textPath></text><line stroke="#e1ed5e" stroke-width="0.3" x1="26.387840678322732" x2="22.057713659400548" y1="142.50000000000003" y2="145.00000000000006" /><path d="M 25.521815274538298 143.00000000000003 a86.0,86.0 0 0,1 -11.493303480769221,-40.785679425670985" fill="none" id="id81" stroke="none" /><text fill="#e1ed5e" style="font-size:6.75px; font-family:Arial;" text-anchor="middle"><textPath startOffset="21.40746469413373" xlink:href="#id81">September</textPath></text><line stroke="#e1ed5e" stroke-width="0.3" x1="15.003131293944662" x2="10.003315487706104" y1="100.72959589197737" y2="100.7725132973878" /><path d="M 14.003168132696942 100.73817937305945 a86.0,86.0 0 0,1 10.791469493833604,-42.45332614584628" fill="none" id="id82" stroke="none" /><text fill="#e1ed5e" style="font-size:6.75px; font-family:Arial;" text-anchor="middle"><textPath startOffset="22.145653131862435" xlink:href="#id82">October</textPath></text><line stroke="#e1ed5e" stroke-width="0.3" x1="26.387840678322718" x2="22.05771365940052" y1="57.49999999999999" y2="54.99999999999999" /><path d="M 25.521815274538284 56.99999999999999 a86.0,86.0 0 0,1 29.574782752854787,-30.34633250058573" fill="none" id="id83" stroke="none" /><text fill="#e1ed5e" style="font-size:6.75px; font-family:Arial;" text-anchor="middle"><textPath startOffset="21.40746469413373" xlink:href="#id83">November</textPath></text><line stroke="#e1ed5e" stroke-width="0.3" x1="56.869717070023135" x2="54.33264160355391" y1="26.7553504044142" y2="22.446841604673864" /><path d="M 56.362301976729285 25.89364864446614 a86.0,86.0 0 0,1 42.16139366436587,-11.88097634709845" fill="none" id="id84" stroke="none" /><text fill="#e1ed5e" style="font-size:6.75px; font-family:Arial;" text-anchor="middle"><textPath startOffset="22.145653131862474" xlink:href="#id84">December</textPath></text></svg>