<?xml version="1.0" encoding="utf-8" ?>
<svg baseProfile="full" height="200mm" version="1.1" viewBox="0,0,200,200" width="200mm" xmlns="http://www.w3.org/2000/svg" xmlns:ev="http://www.w3.org/2001/xml-events" xmlns:xlink="http://www.w3.org/1999/xlink"><defs /><rect fill="#1a1a1a" height="200" width="200" x="0" y="0" /><text alignment-baseline="middle" fill="#e1ed5e" style="dominant-baseline: central; font-size:9.0px; font-family:Arial;" text-anchor="middle" x="100.0" y="100.0">2022</text><line stroke="#e1ed5e" stroke-width="0.3" x1="100.0" x2="100.0" y1="15.0" y2="10.0" /><path d="M 100.0 14.0 a86.0,86.0 0 0,1 42.46469731375804,11.215312516191453" fill="none" id="id49" stroke="none" /><text fill="#e1ed5e" style="font-size:6.75px; font-family:Arial;" text-anchor="middle"><textPath startOffset="22.20632615414155" xlink:href="#id49">January</textPath></text><line stroke="#e1ed5e" stroke-width="0.3" x1="143.23703022742887" x2="145.7803849466894" y1="26.81831364943548" y2="22.513508569990506" /><path d="M 143.74570117128098 25.957352633546492 a86.0,86.0 0 0,1 28.547481713284135,27.462654790039103" fill="none" id="id50" stroke="none" /><text fill="#e1ed5e" style="font-size:6.75px; font-family:Arial;" text-anchor="middle"><textPath startOffset="19.985693538727396" xlink:href="#id50">February</textPath></text><line stroke="#e1ed5e" stroke-width="0.3" x1="172.23445277983987" x2="176.4835382374775" y1="55.19839476539836" y2="52.563006222186495" /><path d="M 173.08426987136738 54.67131705675599 a86.0,86.0 0 0,1 12.851231095245387,41.99856678651699" fill="none" id="id51" stroke="none" /><text fill="#e1ed5e" style="font-size:6.75px; font-family:Arial;" text-anchor="middle"><textPath startOffset="22.20632615414155" xlink:href="#id51">March</textPath></text><line stroke="#e1ed5e" stroke-width="0.3" x1="184.98032266829074" x2="189.97916517819016" y1="98.17113171792111" y2="98.06355123074" /><path d="M 185.9800911702706 98.14961562048488 a86.0,86.0 0 0,1 -9.607161424134198,41.387399972396054" fill="none" id="id52" stroke="none" /><text fill="#e1ed5e" style="font-size:6.75px; font-family:Arial;" text-anchor="middle"><textPath startOffset="21.466115282336823" xlink:href="#id52">April</textPath></text><line stroke="#e1ed5e" stroke-width="0.3" x1="174.80103733775053" x2="179.2010983576182" y1="140.37084112569926" y2="142.7455964860345" /><path d="M 175.68104954172406 140.8457921977663 a86.0,86.0 0 0,1 -30.038265399797805,32.042727171017184" fill="none" id="id53" stroke="none" /><text fill="#e1ed5e" style="font-size:6.75px; font-family:Arial;" text-anchor="middle"><textPath startOffset="22.206326154141568" xlink:href="#id53">May</textPath></text><line stroke="#e1ed5e" stroke-width="0.3" x1="143.8653032363475" x2="146.44561519142675" y1="172.8068346515853" y2="177.08958963109032" /><path d="M 144.38136562736335 173.6633856474863 a86.0,86.0 0 0,1 -40.68145358897372,12.25698825130547" fill="none" id="id54" stroke="none" /><text fill="#e1ed5e" style="font-size:6.75px; font-family:Arial;" text-anchor="middle"><textPath startOffset="21.466115282336833" xlink:href="#id54">June</textPath></text><path d="M 107.2578585660854 119.70592522655815 l 5.162193671282877 14.015952717328693 a35.936370846836475,35.936370846836475 0 0,0 -0.5823068600540146,0.2087945225296385 l -4.9201672505991265 -14.102734780898292" fill="#ffaa0f" stroke="none" /><path d="M 106.2309692047433 120.05430185196036 l 2.674540254100073 8.607976674015875 a30.013901929309142,30.013901929309142 0 0,0 -0.4946934558300039,0.14904708020928356 l -2.525971823829823 -8.652739123330884" fill="#ff5708" stroke="none" /><path d="M 105.18746579009965 120.34920634021253 l 3.684437464987636 14.453180272674656 a35.91541147363479,35.91541147363479 0 0,0 -0.6003803440435943,0.1475588813847172 l -3.4351038362008306 -14.514460412373403" fill="#ffa90f" stroke="none" /><path d="M 104.48393922423573 120.51570834832081 l 3.8315330781450307 17.530704861764843 a38.94453283535754,38.94453283535754 0 0,0 -0.6561384879901644,0.13750019967336188 l -3.5292031287254884 -17.594061042164746" fill="#ffd213" stroke="none" /><path d="M 101.26447882468166 120.96189622390904 l 0.6509197680430489 10.79062168656275 a31.81023648802132,31.81023648802132 0 0,0 -0.5468511866078375,0.028265959990787334 l -0.46508051302173176 -10.80022745331574" fill="#ff710a" stroke="none" /><path d="M 100.90346689309514 120.98055641714683 l 0.43878443622510505 10.189572733150856 a31.19901584789654,31.19901584789654 0 0,0 -0.5367414035059529,0.018486459195374817 l -0.26332268104449985 -10.195615990772325" fill="#ff6809" stroke="none" /><line stroke="#e1ed5e" stroke-width="0.3" x1="102.19456741930631" x2="102.32365962044197" y1="184.97166512339345" y2="189.96999836594603" /><path d="M 102.22038585953345 185.97133177190398 a86.0,86.0 0 0,1 -42.740103519485714,-10.115201625700543" fill="none" id="id55" stroke="none" /><text fill="#e1ed5e" style="font-size:6.75px; font-family:Arial;" text-anchor="middle"><textPath startOffset="22.20632615414155" xlink:href="#id55">July</textPath></text><path d="M 100.18074693466247 120.99922214144158 l 0.25702144516204334 29.86081303205076 a50.86191914392586,50.86191914392586 0 0,0 -0.875536759648977,0.0 l 0.25702144516202274 -29.86081303205076" fill="#9bff22" stroke="none" /><path d="M 99.81925306533755 120.99922214144158 l -0.09093304953819405 10.564623465495313 a31.565014802980283,31.565014802980283 0 0,0 -0.5432794637586533,-0.009353048656914595 l 0.27277220318951534 -10.561492939559239" fill="#ff6d0a" stroke="none" /><path d="M 98.37488393609728 120.93702456842531 l -1.158992506953579 14.931767109872418 a35.976679627161765,35.976679627161765 0 0,0 -0.6170097903102106,-0.05323820094976327 l 1.4158466150053313 -14.909604656643992" fill="#ffaa0f" stroke="none" /><path d="M 97.65516085044442 120.86867818915974 l -1.3685145341332774 12.179551597570361 a33.256194725444466,33.256194725444466 0 0,0 -0.5683207762202405,-0.06881573135243048 l 1.5779627334049071 -12.154190337492583" fill="#ff850c" stroke="none" /><path d="M 96.58105272829116 120.7198165907248 l -1.8326654888774114 11.106486817128271 a32.25667411863586,32.25667411863586 0 0,0 -0.5470594125830032,-0.09511329112431441 l 2.0235738729324644 -11.073294947482951" fill="#ff770b" stroke="none" /><line stroke="#e1ed5e" stroke-width="0.3" x1="58.666819895761336" x2="56.23545636021788" y1="174.27360380694188" y2="178.64263932499728" /><path d="M 58.180547188652646 175.14741091055294 a86.0,86.0 0 0,1 -31.652253787137756,-30.449443065178592" fill="none" id="id56" stroke="none" /><text fill="#e1ed5e" style="font-size:6.75px; font-family:Arial;" text-anchor="middle"><textPath startOffset="22.20632615414155" xlink:href="#id56">August</textPath></text><path d="M 89.1626897886671 117.98757091392108 l -7.711545711936258 12.799483695164701 a35.943049224641854,35.943049224641854 0 0,0 -0.5272003228117426,-0.32384949765036 l 7.930725234680309 -12.664845730685963" fill="#ffaa0f" stroke="none" /><path d="M 82.85270091963577 112.12312394758628 l -24.397001799798897 17.248656793251964 a50.87858527425266,50.87858527425266 0 0,0 -0.49943168634802176,-0.7194685935596437 l 24.690294393309053 -16.82614693750531" fill="#9bff22" stroke="none" /><path d="M 82.6465618267979 111.8261652097733 l -14.813191152853264 10.095016567271387 a38.92595859708635,38.92595859708635 0 0,0 -0.37257127604403995,-0.5569435065512867 l 14.984765534308035 -9.83853614651428" fill="#ffd113" stroke="none" /><path d="M 82.24976979558568 111.22182372390057 l -12.650481397080906 7.997725698521969 a35.96657261789381,35.96657261789381 0 0,0 -0.3263287558885251,-0.5261458598302197 l 12.786274792637387 -7.778783507326485" fill="#ffaa0f" stroke="none" /><path d="M 82.05923443525364 110.91462005526583 l -7.758977307758034 4.7203275147866055 a30.082027345761276,30.082027345761276 0 0,0 -0.26532222677160694,-0.44469531337518464 l 7.839080410227873 -4.58607010752531" fill="#ff5808" stroke="none" /><line stroke="#e1ed5e" stroke-width="0.3" x1="26.63291911575756" x2="22.317208475507996" y1="142.92168965132927" y2="145.44649492493687" /><path d="M 25.769776987707644 143.4266507060508 a86.0,86.0 0 0,1 -11.730757126820373,-40.83630448921669" fill="none" id="id57" stroke="none" /><text fill="#e1ed5e" style="font-size:6.75px; font-family:Arial;" text-anchor="middle"><textPath startOffset="21.46611528233685" xlink:href="#id57">September</textPath></text><path d="M 81.87401531095188 110.60418214915194 l -7.681280255033325 4.493752828351038 a29.899206753339186,29.899206753339186 0 0,0 -0.25606250720073404,-0.44646656487745007 l 7.757494758386437 -4.360866417615281" fill="#ff5607" stroke="none" /><path d="M 79.58551787078972 104.9243191809786 l -14.550639779951887 3.5098609952688102 a35.967973884665476,35.967973884665476 0 0,0 -0.1400000871408156,-0.6031167112599367 l 14.608900433023258 -3.258875626660299" fill="#ffaa0f" stroke="none" /><path d="M 79.4281124754447 104.21870165774334 l -15.831321221859001 3.246548038103162 a37.160779863403704,37.160779863403704 0 0,0 -0.12310847360826191,-0.6277274546662869 l 15.884859628442928 -2.9735568563689205" fill="#ffba11" stroke="none" /><path d="M 79.35854240842038 103.8639653848113 l -11.981618029898147 2.2428918653711425 a33.18973890344368,33.18973890344368 0 0,0 -0.10028604815509216,-0.5624574163712379 l 12.018450520392427 -2.036315698266691" fill="#ff840c" stroke="none" /><path d="M 79.18660465613746 102.79330883721812 l -10.987596718161074 1.4746152900842564 a32.08610715691916,32.08610715691916 0 0,0 -0.06875363791453654,-0.5480341414866008 l 11.011351865322458 -1.285263394310247" fill="#ff750a" stroke="none" /><path d="M 79.0095281055655 100.63252640178507 l -3.505540962361264 0.10563589148372017 a24.507132215979645,24.507132215979645 0 0,0 -0.009076901816482096,-0.42176796041108916 l 3.5068399268627535 -0.045278115282502196" fill="#ff0701" stroke="none" /><line stroke="#e1ed5e" stroke-width="0.3" x1="15.007084014347285" x2="10.007500721073583" y1="101.09737516637583" y2="101.16192664675087" /><path d="M 14.007167355692545 101.11028546245083 a86.0,86.0 0 0,1 10.666146001902534,-42.60595125391555" fill="none" id="id58" stroke="none" /><text fill="#e1ed5e" style="font-size:6.75px; font-family:Arial;" text-anchor="middle"><textPath startOffset="22.20632615414155" xlink:href="#id58">October</textPath></text><path d="M 79.00019446554 99.90962569577889 l -14.978657726806036 -0.06446182408713491 a35.97879643441257,35.97879643441257 0 0,0 0.007995846993931646,-0.6192871614125389 l 14.975328872694389 0.32228524356014576" fill="#ffaa0f" stroke="none" /><path d="M 79.08570108090925 98.10471618934814 l -16.84771106430818 -1.52676377775094 a37.91674837962262,37.91674837962262 0 0,0 0.06449977318589611,-0.6495039137273046 l 16.81893416544005 1.8165432221826752" fill="#ffc412" stroke="none" /><path d="M 79.26566170972629 96.67025291283419 l -17.806895283387522 -2.8596262331236177 a39.03504870596965,39.03504870596965 0 0,0 0.11225018699147306,-0.6625069577424492 l 17.755033234875825 3.1657189791818947" fill="#ffd313" stroke="none" /><path d="M 79.3925641242962 95.95851677861259 l -18.367189784586294 -3.602131278543094 a39.71707803934336,39.71707803934336 0 0,0 0.13734677006743914,-0.6697516285614002 l 18.30246371860386 3.9177585632678964" fill="#ffdc14" stroke="none" /><path d="M 79.71946130924805 94.55025226153421 l -20.779699415136044 -5.5838812578127675 a42.516868677499474,42.516868677499474 0 0,0 0.1960093029559365,-0.7051497511616324 l 20.680503341613747 5.9407423123933425" fill="#ffff18" stroke="none" /><path d="M 79.81627453868168 94.20196356495316 l -29.027391859354935 -8.338494097012424 a51.201323844534635,51.201323844534635 0 0,0 0.2506282929186622,-0.8449940097233054 l 28.879557669324566 8.836917493482268" fill="#97ff23" stroke="none" /><path d="M 79.91906864156998 93.8553929516997 l -22.82790357088297 -6.985158938889664 a44.87269626253142,44.87269626253142 0 0,0 0.2323647450993003,-0.7366597413574172 l 22.70428334201547 7.377068846673495" fill="#e2ff1b" stroke="none" /><path d="M 80.02781315780177 93.51064311812611 l -27.517257048640168 -8.940898801406957 a49.93335630129933,49.93335630129933 0 0,0 0.27264256021739536,-0.8151665524499314 l 27.359277194651003 9.413238456779212" fill="#a5ff21" stroke="none" /><path d="M 80.14247586403 93.16781622104843 l -13.091324035410306 -4.504203600977268 a34.84451570403126,34.84451570403126 0 0,0 0.2000190008950085,-0.5654806503785276 l 13.011851953705488 4.728881877782407" fill="#ff9b0e" stroke="none" /><path d="M 80.2630227832202 92.82701384747504 l -59.210931650339425 -21.518958457574875 a84.0,84.0 0 0,0 0.5055816459934896,-1.3547074518826343 l 58.83174541584431 22.534989046486853" fill="#4dd2ff" stroke="none" /><path d="M 80.65960295795068 91.81776055985345 l -14.15872278116113 -5.990055928543769 a36.373685336341886,36.373685336341886 0 0,0 0.24891602381387548,-0.5745325019334512 l 14.053516047504573 6.2328875750638195" fill="#ffb010" stroke="none" /><path d="M 81.10775173730289 90.83032412892265 l -31.126816482346552 -15.107932844879832 a55.59954247054547,55.59954247054547 0 0,0 0.4253099896316476,-0.8573989863300434 l 30.862146479761492 15.641491419708837" fill="#66ff29" stroke="none" /><path d="M 81.26839172434947 90.50648371742162 l -11.537888772153147 -5.847609736073778 a33.935123383408545,33.935123383408545 0 0,0 0.2685570186128636,-0.5187666799778704 l 11.43552232038017 6.045349138311984" fill="#ff8e0d" stroke="none" /><line stroke="#e1ed5e" stroke-width="0.3" x1="26.266209847984243" x2="21.928928074336255" y1="57.711370442889674" y2="55.22380399835377" /><path d="M 25.398753493254645 57.213857153982495 a86.0,86.0 0 0,1 29.58750427330803,-30.492523968695096" fill="none" id="id59" stroke="none" /><text fill="#e1ed5e" style="font-size:6.75px; font-family:Arial;" text-anchor="middle"><textPath startOffset="21.46611528233685" xlink:href="#id59">November</textPath></text><path d="M 82.34701348167596 88.62581576622439 l -10.85628495802675 -6.994928879529121 a33.91464103719296,33.91464103719296 0 0,0 0.3204180424955922,-0.4880186613391158 l 10.734270280173236 7.180765604845904" fill="#ff8e0d" stroke="none" /><path d="M 82.95767976084542 87.72973835380427 l -6.015890137499597 -4.331367148722838 a28.412939735590754,28.412939735590754 0 0,0 0.28918607189965445,-0.3944494770772879 l 5.940441453086309 4.434279069471626" fill="#ff4006" stroke="none" /><path d="M 83.17141714833178 87.43820079747576 l -14.500632925602131 -10.824086658186348 a39.095005035284856,39.095005035284856 0 0,0 0.40719134372744814,-0.5358160779125193 l 14.312165641650575 11.072087511979895" fill="#ffd413" stroke="none" /><path d="M 83.39014120810768 87.1503855733568 l -11.873966641247787 -9.185863345769908 a36.012367208559226,36.012367208559226 0 0,0 0.38352471306408364,-0.4870374380469844 l 11.714087847589731 9.388893177769939" fill="#ffab0f" stroke="none" /><path d="M 84.80347519578584 85.50635884689758 l -10.442749268135003 -9.959741618175732 a35.43078186994578,35.43078186994578 0 0,0 0.42472352198119073,-0.43771492365321324 l 10.269761482450694 10.138020737379069" fill="#ffa30f" stroke="none" /><path d="M 86.10567301691215 84.25364557470407 l -23.688597649708765 -26.84614050645078 a56.80314118484417,56.80314118484417 0 0,0 0.7387281006630383,-0.6406177293473991 l 23.222975750398955 27.24992322921786" fill="#5aff2a" stroke="none" /><path d="M 86.93701828274178 83.55741782278169 l -1.9094588601523317 -2.4034661382548483 a24.069638841354454,24.069638841354454 0 0,0 0.3266220704217248,-0.25493370675758875 l 1.8678042345711812 2.435978234235659" fill="#ff0000" stroke="none" /><path d="M 88.09926311788651 82.69761687909137 l -8.183761569014937 -11.898303394143928 a35.44103795014689,35.44103795014689 0 0,0 0.505617552153509,-0.3413952282421734 l 7.977739322454888 12.037410534684767" fill="#ffa30f" stroke="none" /><path d="M 89.00827224532344 82.1063720568725 l -7.30796694131758 -11.896768586992733 a34.9620730419178,34.9620730419178 0 0,0 0.5155040027355741,-0.31058539363453197 l 7.102100872364357 12.020800590085885" fill="#ff9c0e" stroke="none" /><line stroke="#e1ed5e" stroke-width="0.3" x1="56.762969772571076" x2="54.21961505331055" y1="26.818313649435495" y2="22.513508569990535" /><path d="M 56.25429882871897 25.957352633546506 a86.0,86.0 0 0,1 42.265352541879196,-11.944610805530505" fill="none" id="id60" stroke="none" /><text fill="#e1ed5e" style="font-size:6.75px; font-family:Arial;" text-anchor="middle"><textPath startOffset="22.20632615414155" xlink:href="#id60">December</textPath></text><path d="M 89.94658935756843 81.56283822128135 l -9.519474496488986 -17.45796502128191 a40.88469103037829,40.88469103037829 0 0,0 0.6207755360093278,-0.3315967925179301 l 9.217553913951352 17.61924054030159" fill="#ffeb16" stroke="none" /><path d="M 91.23893434514133 80.91482961587045 l -7.487899086769043 -16.31169489192243 a38.948259608686435,38.948259608686435 0 0,0 0.6117063082639552,-0.2744547897071355 l 7.206010660038314 16.438170012146095" fill="#ffd213" stroke="none" /><path d="M 91.56875222667455 80.76684994638697 l -8.393199013043608 -19.1463541800331 a41.90523063876185,41.90523063876185 0 0,0 0.66313279880018,-0.28391885695768343 l 8.06238245645312 19.28799256495357" fill="#fff817" stroke="none" /><path d="M 92.57280143429618 80.3572730644239 l -9.59012452987637 -25.363021568911144 a48.11555552821274,48.11555552821274 0 0,0 0.7772212781162435,-0.28625715597039714 l 9.152120925987557 25.524341992687862" fill="#bbff1f" stroke="none" /><path d="M 97.11714578562143 79.19881850522333 l -1.7095445766628514 -12.335187410869684 a33.45308761395644,33.45308761395644 0 0,0 0.5710685331209331,-0.074141085375742 l 1.4969613150340606 12.362786819409564" fill="#ff880c" stroke="none" /></svg>