<?xml version="1.0" encoding="utf-8" ?>
<svg baseProfile="full" height="200mm" version="1.1" viewBox="0,0,200,200" width="200mm" xmlns="http://www.w3.org/2000/svg" xmlns:ev="http://www.w3.org/2001/xml-events" xmlns:xlink="http://www.w3.org/1999/xlink"><defs /><rect fill="#1a1a1a" height="200" width="200" x="0" y="0" /><text alignment-baseline="middle" fill="#e1ed5e" style="dominant-baseline: central; font-size:9.0px; font-family:Arial;" text-anchor="middle" x="100.0" y="100.0">2024</text><line stroke="#e1ed5e" stroke-width="0.3" x1="100.0" x2="100.0" y1="15.0" y2="10.0" /><path d="M 100.0 14.0 a86.0,86.0 0 0,1 42.35913384403234,11.155469271406648" fill="none" id="id73" stroke="none" /><text fill="#e1ed5e" style="font-size:6.75px; font-family:Arial;" text-anchor="middle"><textPath startOffset="22.145653131862478" xlink:href="#id73">January</textPath></text><path d="M 108.4095320186766 80.7573450057729 l 16.784149736197996 -38.405419234723574 a62.91281318358374,62.91281318358374 0 0,0 0.9858935051126156,0.44097762477774766 l -17.440956644166246 38.11163785903597" fill="#32ff46" stroke="none" /><path d="M 109.06512990194946 81.05736502329252 l 6.508294846791511 -13.599833089765834 a36.0769148661874,36.0769148661874 0 0,0 0.5563399579837979,0.2721337520006933 l -6.740795054037376 13.48610558766792" fill="#ffa60f" stroke="none" /><path d="M 109.3889696526874 81.21577127319529 l 14.703514174481874 -29.416877842631855 a53.88686715221616,53.88686715221616 0 0,0 0.8238860071292062,0.4206820656603905 l -15.206327403324659 29.16013782529863" fill="#7cff26" stroke="none" /><line stroke="#e1ed5e" stroke-width="0.3" x1="143.13028292997686" x2="145.6673583964461" y1="26.7553504044142" y2="22.446841604673864" /><path d="M 143.63769802327073 25.89364864446614 a86.0,86.0 0 0,1 29.32050498858742,28.57503671076993" fill="none" id="id74" stroke="none" /><text fill="#e1ed5e" style="font-size:6.75px; font-family:Arial;" text-anchor="middle"><textPath startOffset="20.669276256404974" xlink:href="#id74">February</textPath></text><path d="M 116.57777611688842 87.10902102172516 l 23.114877610635574 -17.974268639117543 a50.28091357976773,50.28091357976773 0 0,0 0.5239942149405311,0.6859252477974284 l -23.420023802930412 17.57482247807923" fill="#a5ff21" stroke="none" /><path d="M 117.01052211995028 87.68569379921539 l 10.946216348253435 -7.924216488001669 a34.513432550299285,34.513432550299285 0 0,0 0.34330166465057693,0.48289678417635296 l -11.080633111433972 7.7351424771158115" fill="#ff910d" stroke="none" /><path d="M 117.42321728460499 88.27688183743584 l 13.765554596070238 -9.26207946941862 a37.59146194387994,37.59146194387994 0 0,0 0.3556430854043136,0.5384889597795528 l -13.922522120395275 9.02441063130001" fill="#ffbb11" stroke="none" /><path d="M 117.62189284568427 88.57770195909679 l 24.61698663471527 -15.956433322627577 a50.33604941625934,50.33604941625934 0 0,0 0.46376833502338727,0.7291208525297481 l -24.88727266136455 15.531498795419157" fill="#a4ff21" stroke="none" /><line stroke="#e1ed5e" stroke-width="0.3" x1="172.87174338648825" x2="177.1583165268699" y1="56.24261187166439" y2="53.66864786411523" /><path d="M 173.72905801456457 55.72781907015455 a86.0,86.0 0 0,1 12.242430191666344,42.057860355516425" fill="none" id="id75" stroke="none" /><text fill="#e1ed5e" style="font-size:6.75px; font-family:Arial;" text-anchor="middle"><textPath startOffset="22.145653131862474" xlink:href="#id75">March</textPath></text><path d="M 118.18653347947321 89.5 l 53.71733670434293 -31.01371880640216 a83.0274376128043,83.0274376128043 0 0,0 0.7020429860858715,1.2404426879540569 l -54.24181305545017 30.087019348348985" fill="#4cdbff" stroke="none" /><path d="M 118.70294669586156 90.45014215332178 l 3.1714134102013545 -1.619346284464016 a24.560919180129254,24.560919180129254 0 0,0 0.1885110040501308,0.3771482866156391 l -3.1987443274632223 1.5646661416846264" fill="#ff0000" stroke="none" /><path d="M 118.8641267826498 90.77261029715802 l 22.157586347264445 -10.838385813258414 a45.6663584619522,45.6663584619522 0 0,0 0.33841107571988827,0.7071489927638249 l -22.340376680944242 10.456424318429486" fill="#dcff1b" stroke="none" /><path d="M 119.0197475246899 91.09779779509293 l 14.765086779333437 -6.9108061456651475 a37.302362687175446,37.302362687175446 0 0,0 0.2664730428898851,0.5822916894419033 l -14.881544287078373 6.65632547400856" fill="#ffb711" stroke="none" /><path d="M 119.16976305983485 91.42560881287824 l 25.102253881367613 -11.227918873356476 a48.498896562431554,48.498896562431554 0 0,0 0.33340940110374984,0.7629059575518483 l -25.291297164488334 10.795350846028777" fill="#baff1f" stroke="none" /><path d="M 119.31412917781788 91.75594674310238 l 28.757431838434037 -12.274837629228196 a52.26757945166361,52.26757945166361 0 0,0 0.345150592313415,0.828235773890892 l -28.963908275283938 11.779369345896027" fill="#8eff24" stroke="none" /><path d="M 119.4528033332814 92.08871423366111 l 31.363533730616496 -12.755276128279284 a54.8580613322761,54.8580613322761 0 0,0 0.3472811124905904,0.8753752642895984 l -31.57787351807321 12.214999846776122" fill="#71ff27" stroke="none" /><path d="M 119.71291397450082 92.76114493625339 l 29.6849351332972 -10.900719360142157 a52.623109531427176,52.623109531427176 0 0,0 0.3041110297377596,0.850652674878939 l -29.8676863330789 10.389531728882302" fill="#8aff24" stroke="none" /><path d="M 119.83427380445688 93.10060997987247 l 41.261460452401984 -14.352877814826764 a64.68653362573505,64.68653362573505 0 0,0 0.35582084103437245,1.0519210912980648 l -41.50176671500872 13.642455049054538" fill="#34ff5c" stroke="none" /><path d="M 120.05942366710727 93.78553927170692 l 14.225083420001328 -4.406967205904745 a35.89209045970097,35.89209045970097 0 0,0 0.17727903358299443,0.5901042459168994 l -14.29863877358795 4.162125356397121" fill="#ffa40f" stroke="none" /><path d="M 120.51834098615036 95.52812308129327 l 43.09491007998959 -9.392335073801918 a65.10654410561949,65.10654410561949 0 0,0 0.22862407631727186,1.0940489680254448 l -43.24979186713122 8.651169654491069" fill="#35ff61" stroke="none" /><path d="M 120.65975698304385 96.23510406497455 l 14.361982405457594 -2.61723161708013 a35.59850814131764,35.59850814131764 0 0,0 0.10439717242320139,0.6021351480680489 l -14.40479439537303 2.370303436091488" fill="#ffa00e" stroke="none" /><path d="M 120.93736805541906 98.37931529534042 l 34.82083800957571 -2.695353084311946 a55.925000901048264,55.925000901048264 0 0,0 0.0658744282920021,0.9577997299160379 l -34.86197639903278 2.097209930241574" fill="#65ff29" stroke="none" /><path d="M 120.96210409425399 98.7389718711861 l 20.348887680895963 -1.224138552136977 a41.38567499604925,41.38567499604925 0 0,0 0.03657392129493034,0.7095243023200519 l -20.366903191647463 0.8746424564401944" fill="#ffed16" stroke="none" /><path d="M 120.98066250479742 99.09900007780936 l 29.245894481649984 -1.2559445463810812 a50.27284989090385,50.27284989090385 0 0,0 0.029625821569543062,0.8625234703905249 l -29.263144990216375 0.7537148114264365" fill="#a5ff21" stroke="none" /><line stroke="#e1ed5e" stroke-width="0.3" x1="184.99686870605535" x2="189.99668451229388" y1="99.2704041080226" y2="99.22748670261217" /><path d="M 185.99683186730306 99.26182062694052 a86.0,86.0 0 0,1 -10.086455211305974,41.156179273409016" fill="none" id="id76" stroke="none" /><text fill="#e1ed5e" style="font-size:6.75px; font-family:Arial;" text-anchor="middle"><textPath startOffset="21.40746469413373" xlink:href="#id76">April</textPath></text><path d="M 120.99922638620191 99.81974689727618 l 8.775561051587593 -0.07532763724717123 a29.775884344217076,29.775884344217076 0 0,0 0.0,0.5111614799419951 l -8.775561051587593 -0.07532763724717016" fill="#ff4e07" stroke="none" /><path d="M 120.98066250479742 100.90099992219065 l 29.680205613871387 1.2745957351244583 a50.70756131980005,50.70756131980005 0 0,0 -0.04481198764899357,0.8693405887717653 l -29.65395203676582 -1.7839081172729545" fill="#a0ff22" stroke="none" /><path d="M 120.93736805541906 101.62068470465957 l 32.87483900574732 2.544720454057763 a53.97318064492877,53.97318064492877 0 0,0 -0.07943407072453153,0.9231443092309504 l -32.826311312325046 -3.1086858106643707" fill="#7bff26" stroke="none" /><path d="M 120.86939407059847 102.33845913500097 l 34.76319124927165 3.8952880885589725 a55.980748064132456,55.980748064132456 0 0,0 -0.11520814956929416,0.9540887477481267 l -34.691201013442694 -4.4914705132305075" fill="#65ff29" stroke="none" /><path d="M 120.82617615685814 102.69636545807757 l 21.541224121810213 2.788942732899602 a42.721016049748954,42.721016049748954 0 0,0 -0.10040554287561826,0.7264844912827223 l -21.490174062379385 -3.1583155323824093" fill="#fffe18" stroke="none" /><path d="M 120.7213421655516 103.40968896794604 l 28.88639812193354 4.753245818400488 a50.27485853542229,50.27485853542229 0 0,0 -0.1474374446883849,0.8503800009863733 l -28.80054585975292 -5.2484188523074495" fill="#a5ff21" stroke="none" /><path d="M 120.65975698304385 103.76489593502545 l 7.0268124157363046 1.2805192975844129 a28.142536132035453,28.142536132035453 0 0,0 -0.09069094117324476,0.4745333265624295 l -7.003795182280901 -1.4009551891801568" fill="#ff3605" stroke="none" /><path d="M 120.592083275326 104.11899336999214 l 29.660761595649248 5.932983017205791 a51.24832335711177,51.24832335711177 0 0,0 -0.1799604133698387,0.8611757243776409 l -29.554543471455045 -6.441275192868841" fill="#99ff23" stroke="none" /><path d="M 120.35273937422433 105.17358676015961 l 51.96445836382038 13.209162110649409 a74.61703923857263,74.61703923857263 0 0,0 -0.32622043396700795,1.2387121230736162 l -51.73004844904864 -14.099254738095828" fill="#41ffcd" stroke="none" /><path d="M 120.16314734710363 105.8691983318838 l 3.435898336716759 1.0001399304993464 a24.578502097363117,24.578502097363117 0 0,0 -0.12139869934938138,0.4040967873469533 l -3.4182233173637475 -1.058974321437023" fill="#ff0000" stroke="none" /><path d="M 119.94978838288452 106.5578916946017 l 13.902755426972774 4.5701118526571936 a35.634634631859406,35.634634631859406 0 0,0 -0.19601522842485916,0.5794841932145275 l -13.822254776975551 -4.808097720345881" fill="#ffa00e" stroke="none" /><path d="M 119.83427380445688 106.89939002012753 l 59.50282141337066 20.698170060382587 a84.0,84.0 0 0,0 -0.48543931982422706,1.3578601744763141 l -59.13874192350249 -21.716565191239823" fill="#4dd2ff" stroke="none" /><path d="M 119.16976305983485 108.57439118712176 l 26.67198680193883 11.930040442531299 a50.21850004574553,50.21850004574553 0 0,0 -0.358740721835186,0.7839132196022636 l -26.463261615248587 -12.38614264434825" fill="#a5ff21" stroke="none" /><line stroke="#e1ed5e" stroke-width="0.3" x1="174.33088141563837" x2="178.70328620479359" y1="141.23008692659167" y2="143.65538615756765" /><path d="M 175.20536237346943 141.71514677278685 a86.0,86.0 0 0,1 -30.301960400862466,31.631185727798858" fill="none" id="id77" stroke="none" /><text fill="#e1ed5e" style="font-size:6.75px; font-family:Arial;" text-anchor="middle"><textPath startOffset="22.145653131862474" xlink:href="#id77">May</textPath></text><path d="M 118.36410011445183 110.18625677009912 l 17.81978214055283 9.884332765538067 a41.37755308560513,41.37755308560513 0 0,0 -0.3498701364314375,0.6181870071653697 l -17.647478639100015 -10.18877654280256" fill="#ffec16" stroke="none" /><path d="M 118.00360718960297 110.81064883170644 l 29.94104031618018 17.978734433903565 a55.92421490971496,55.92421490971496 0 0,0 -0.5012728004137645,0.8187914473624289 l -29.627999551311014 -18.490062997390552" fill="#65ff29" stroke="none" /><path d="M 117.62189284568427 111.42229804090321 l 37.01080682702956 23.989957833398204 a65.10575811428619,65.10575811428619 0 0,0 -0.615948715373679,0.9326248607984398 l -36.59353367273516 -24.621762572535705" fill="#35ff61" stroke="none" /><path d="M 117.21940702142032 112.02048342749411 l 35.821747863192414 25.006362065646787 a64.68656273652516,64.68656273652516 0 0,0 -0.6434307754121228,0.9050659646607371 l -35.38720198925033 -25.61760525701703" fill="#34ff5c" stroke="none" /><path d="M 116.79662413953412 112.60449989151573 l 19.053258236802083 14.297920188232203 a44.8213595570724,44.8213595570724 0 0,0 -0.46709837673128785,0.6114467692005894 l -18.80500788271649 -14.622887870673669" fill="#e6ff1a" stroke="none" /><path d="M 116.1254893667686 113.45245675266167 l 22.81185543690771 19.030461137221668 a50.70756131980005,50.70756131980005 0 0,0 -0.5633499870097955,0.6636248681741453 l -22.4818108863908 -19.41925278784537" fill="#a0ff22" stroke="none" /><line stroke="#e1ed5e" stroke-width="0.3" x1="143.1302829299769" x2="145.66735839644613" y1="173.24464959558577" y2="177.55315839532614" /><path d="M 143.63769802327073 174.10635135553383 a86.0,86.0 0 0,1 -40.68552437913181,11.842963189579606" fill="none" id="id78" stroke="none" /><text fill="#e1ed5e" style="font-size:6.75px; font-family:Arial;" text-anchor="middle"><textPath startOffset="21.407464694133747" xlink:href="#id78">June</textPath></text><path d="M 105.69591212413111 120.21278271476187 l 2.381849221984007 8.452342615912725 a29.7815318375008,29.7815318375008 0 0,0 -0.49326527055896685,0.1344416429440751 l -2.2364025504903453 -8.491984753000942" fill="#ff4e07" stroke="none" /><path d="M 104.9986988182912 120.39639698878246 l 3.5124045863423383 14.331809323280801 a35.755939294299,35.755939294299 0 0,0 -0.5974099719618245,0.14098712671997277 l -3.265862460640635 -14.389992593647" fill="#ffa20f" stroke="none" /><path d="M 100.72087961077811 120.9876233191556 l 0.5001624310977584 14.56168345632951 a35.570270674899014,35.570270674899014 0 0,0 -0.6104310460063553,0.015722538397134028 l -0.2501180710206592 -14.568123712076689" fill="#ff9f0e" stroke="none" /><line stroke="#e1ed5e" stroke-width="0.3" x1="101.45913802915013" x2="101.54496967792366" y1="184.9874750549273" y2="189.98673829345242" /><path d="M 101.47630435890484 185.9873277026323 a86.0,86.0 0 0,1 -42.54439059252881,-10.42667462771756" fill="none" id="id79" stroke="none" /><text fill="#e1ed5e" style="font-size:6.75px; font-family:Arial;" text-anchor="middle"><textPath startOffset="22.145653131862474" xlink:href="#id79">July</textPath></text><path d="M 95.00130118170881 120.39639698878247 l -2.8054182143055817 11.447063665679845 a32.785823599701686,32.785823599701686 0 0,0 -0.5454853915705824,-0.13866025343321275 l 3.001508899101543 -11.39721818041137" fill="#ff790b" stroke="none" /><line stroke="#e1ed5e" stroke-width="0.3" x1="58.13341422392154" x2="55.67067388415222" y1="173.97424548756322" y2="178.32567169271397" /><path d="M 57.64086615596768 174.84453072859336 a86.0,86.0 0 0,1 -31.369924170532247,-30.572349798747897" fill="none" id="id80" stroke="none" /><text fill="#e1ed5e" style="font-size:6.75px; font-family:Arial;" text-anchor="middle"><textPath startOffset="22.145653131862474" xlink:href="#id80">August</textPath></text><path d="M 83.8745106332314 113.45245675266167 l -15.673030017529554 13.074999071252075 a41.41076849713467,41.41076849713467 0 0,0 -0.45069346941870814,-0.549772750957761 l 15.895170306186891 -12.804024038595818" fill="#ffed16" stroke="none" /><line stroke="#e1ed5e" stroke-width="0.3" x1="26.387840678322732" x2="22.057713659400548" y1="142.50000000000003" y2="145.00000000000006" /><path d="M 25.521815274538298 143.00000000000003 a86.0,86.0 0 0,1 -11.493303480769221,-40.785679425670985" fill="none" id="id81" stroke="none" /><text fill="#e1ed5e" style="font-size:6.75px; font-family:Arial;" text-anchor="middle"><textPath startOffset="21.40746469413373" xlink:href="#id81">September</textPath></text><path d="M 81.63589988554817 110.18625677009913 l -38.192222615908214 21.18458207926411 a64.67416153993307,64.67416153993307 0 0,0 -0.5301884604204224,-0.975487050802741 l 38.550256425943964 -20.52584019498678" fill="#34ff5c" stroke="none" /><path d="M 80.16572619554312 106.89939002012753 l -22.48527010278166 7.8215441450719485 a44.80680416201125,44.80680416201125 0 0,0 -0.24646852826020127,-0.7286404092138574 l 22.61622405261423 -7.4344020613839294" fill="#e6ff1a" stroke="none" /><path d="M 79.56144815229197 104.8234425847677 l -28.3547075923112 6.691633785919475 a50.133612981748925,50.133612981748925 0 0,0 -0.19048179937214943,-0.8392979542843638 l 28.465400253241018 -6.203901497696085" fill="#a6ff21" stroke="none" /><path d="M 79.22317932658666 103.0534771498775 l -20.178644133707436 2.965565797881181 a41.39539799995009,41.39539799995009 0 0,0 -0.0972899943179488,-0.7039419339282366 l 20.2265786445806 -2.618735555752859" fill="#ffed16" stroke="none" /><path d="M 79.17382384314188 102.69636545807758 l -29.967172888400743 3.879850494105912 a51.2172912548414,51.2172912548414 0 0,0 -0.10540497502216847,-0.8729043995696963 l 30.029359949682572 -3.3648524176128163" fill="#9aff23" stroke="none" /><path d="M 79.06263194458094 101.62068470465958 l -16.797592433281853 1.3002398897352923 a37.84784067248698,37.84784067248698 0 0,0 -0.04458122174728711,-0.6482011799723163 l 16.817437616194205 -1.0116952856086328" fill="#ffbe11" stroke="none" /><line stroke="#e1ed5e" stroke-width="0.3" x1="15.003131293944662" x2="10.003315487706104" y1="100.72959589197737" y2="100.7725132973878" /><path d="M 14.003168132696942 100.73817937305945 a86.0,86.0 0 0,1 10.791469493833604,-42.45332614584628" fill="none" id="id82" stroke="none" /><text fill="#e1ed5e" style="font-size:6.75px; font-family:Arial;" text-anchor="middle"><textPath startOffset="22.145653131862435" xlink:href="#id82">October</textPath></text><path d="M 79.06263194458094 98.37931529534042 l -14.534216339803296 -1.1250402655092062 a35.5776939263802,35.5776939263802 0 0,0 0.0523608396206152,-0.6085123257745642 l 14.512761877484937 1.3743736386594512" fill="#ff9f0e" stroke="none" /><line stroke="#e1ed5e" stroke-width="0.3" x1="26.387840678322718" x2="22.05771365940052" y1="57.49999999999999" y2="54.99999999999999" /><path d="M 25.521815274538284 56.99999999999999 a86.0,86.0 0 0,1 29.574782752854787,-30.34633250058573" fill="none" id="id83" stroke="none" /><text fill="#e1ed5e" style="font-size:6.75px; font-family:Arial;" text-anchor="middle"><textPath startOffset="21.40746469413373" xlink:href="#id83">November</textPath></text><line stroke="#e1ed5e" stroke-width="0.3" x1="56.869717070023135" x2="54.33264160355391" y1="26.7553504044142" y2="22.446841604673864" /><path d="M 56.362301976729285 25.89364864446614 a86.0,86.0 0 0,1 42.16139366436587,-11.88097634709845" fill="none" id="id84" stroke="none" /><text fill="#e1ed5e" style="font-size:6.75px; font-family:Arial;" text-anchor="middle"><textPath startOffset="22.145653131862474" xlink:href="#id84">December</textPath></text></svg>