<?xml version="1.0" encoding="utf-8" ?>
<svg baseProfile="full" height="200mm" version="1.1" viewBox="0,0,200,200" width="200mm" xmlns="http://www.w3.org/2000/svg" xmlns:ev="http://www.w3.org/2001/xml-events" xmlns:xlink="http://www.w3.org/1999/xlink"><defs /><rect fill="#1a1a1a" height="200" width="200" x="0" y="0" /><text alignment-baseline="middle" fill="#e1ed5e" style="dominant-baseline: central; font-size:9.0px; font-family:Arial;" text-anchor="middle" x="100.0" y="100.0">2023</text><line stroke="#e1ed5e" stroke-width="0.3" x1="100.0" x2="100.0" y1="15.0" y2="10.0" /><path d="M 100.0 14.0 a86.0,86.0 0 0,1 42.46469731375804,11.215312516191453" fill="none" id="id61" stroke="none" /><text fill="#e1ed5e" style="font-size:6.75px; font-family:Arial;" text-anchor="middle"><textPath startOffset="22.20632615414155" xlink:href="#id61">January</textPath></text><path d="M 102.88285421437855 79.19881850522331 l 2.315318509815169 -16.70613806992771 a37.86581599014352,37.86581599014352 0 0,0 0.6448566847359969,0.09503511259173068 l -2.6025441749798217 16.663808473175013" fill="#ffa50f" stroke="none" /><path d="M 103.2404852339499 79.25152402106235 l 2.7421879284566937 -17.557932301997976 a38.770778861842764,38.770778861842764 0 0,0 0.658495451203218,0.10865739165527867 l -3.0440125857987868 17.508128647403073" fill="#ffb210" stroke="none" /><path d="M 105.36241919743992 79.69619591428918 l 5.3662368699264 -20.31825899335135 a42.0149505510972,42.0149505510972 0 0,0 0.6976524733966194,0.1906947749541569 l -5.71518723254673 20.2228776775709" fill="#ffde14" stroke="none" /><path d="M 108.43124777332544 80.76684994638697 l 5.068906252634961 -11.563061267522606 a33.62529985681462,33.62529985681462 0 0,0 0.528105960223518,0.23694575043304555 l -5.26719433132526 11.47409518657303" fill="#ff6709" stroke="none" /><path d="M 109.73455568895987 81.39251694778311 l 10.097578019457686 -19.301395756417186 a42.78313476074723,42.78313476074723 0 0,0 0.6496006877862406,0.3469941903189305 l -10.428323753772238 19.1247228395965" fill="#ffe915" stroke="none" /><line stroke="#e1ed5e" stroke-width="0.3" x1="143.23703022742887" x2="145.7803849466894" y1="26.81831364943548" y2="22.513508569990506" /><path d="M 143.74570117128098 25.957352633546492 a86.0,86.0 0 0,1 28.547481713284135,27.462654790039103" fill="none" id="id62" stroke="none" /><text fill="#e1ed5e" style="font-size:6.75px; font-family:Arial;" text-anchor="middle"><textPath startOffset="19.985693538727396" xlink:href="#id62">February</textPath></text><path d="M 111.2981086023043 82.29822771554956 l 5.270837973355252 -8.258300290505208 a30.797002430821486,30.797002430821486 0 0,0 0.44440510683526613,0.28905344341793077 l -5.412210105974799 8.166347922927748" fill="#ff3d05" stroke="none" /><path d="M 114.42810811169701 84.74124197986012 l 15.008191949533341 -15.87223823836494 a42.84430754886617,42.84430754886617 0 0,0 0.531507620585838,0.5113099098906403 l -15.279182813731596 15.611545241711998" fill="#ffea15" stroke="none" /><path d="M 116.82858285166822 87.43820079747576 l 13.96023157039676 -10.420700741933233 a38.420650660983654,38.420650660983654 0 0,0 0.3910442618002505,0.5333839336311612 l -14.137538444710636 10.178854364630578" fill="#ffad10" stroke="none" /><line stroke="#e1ed5e" stroke-width="0.3" x1="172.23445277983987" x2="176.4835382374775" y1="55.19839476539836" y2="52.563006222186495" /><path d="M 173.08426987136738 54.67131705675599 a86.0,86.0 0 0,1 12.851231095245387,41.99856678651699" fill="none" id="id63" stroke="none" /><text fill="#e1ed5e" style="font-size:6.75px; font-family:Arial;" text-anchor="middle"><textPath startOffset="22.20632615414155" xlink:href="#id63">March</textPath></text><path d="M 118.3937258080291 89.86733742301442 l 28.035000139295153 -15.443809466444359 a53.007381705570914,53.007381705570914 0 0,0 0.4333780057372307,0.802983625918916 l -28.296686244250846 14.958944857192984" fill="#94ff23" stroke="none" /><path d="M 118.56541770881063 90.18545643968196 l 15.830265736600417 -8.368614974363988 a38.90617295461357,38.90617295461357 0 0,0 0.3078970922332276,0.5947591805184662 l -15.971972261993761 8.094883071585176" fill="#ffb310" stroke="none" /><path d="M 119.34039704204932 91.81776055985345 l 10.176767383378067 -4.305431128245843 a32.05003762778462,32.05003762778462 0 0,0 0.2105814346245534,0.5099396471129206 l -10.249370504888818 4.129616910679619" fill="#ff5007" stroke="none" /><path d="M 120.28053869075195 94.5502522615342 l 60.84161607225586 -16.349243215397394 a84.0,84.0 0 0,0 0.36321467251878925,1.3996142978045985 l -61.11402707664495 15.299532492043943" fill="#4dd2ff" stroke="none" /><path d="M 120.6074358757038 95.95851677861258 l 54.22358412582802 -10.63420537954431 a76.25652359228798,76.25652359228798 0 0,0 0.24153083161389388,1.2902673604206287 l -54.39860068135177 9.699259941661118" fill="#43ffdc" stroke="none" /><line stroke="#e1ed5e" stroke-width="0.3" x1="184.98032266829074" x2="189.97916517819016" y1="98.17113171792111" y2="98.06355123074" /><path d="M 185.9800911702706 98.14961562048488 a86.0,86.0 0 0,1 -9.607161424134198,41.387399972396054" fill="none" id="id64" stroke="none" /><text fill="#e1ed5e" style="font-size:6.75px; font-family:Arial;" text-anchor="middle"><textPath startOffset="21.466115282336823" xlink:href="#id64">April</textPath></text><line stroke="#e1ed5e" stroke-width="0.3" x1="174.80103733775053" x2="179.2010983576182" y1="140.37084112569926" y2="142.7455964860345" /><path d="M 175.68104954172406 140.8457921977663 a86.0,86.0 0 0,1 -30.038265399797805,32.042727171017184" fill="none" id="id65" stroke="none" /><text fill="#e1ed5e" style="font-size:6.75px; font-family:Arial;" text-anchor="middle"><textPath startOffset="22.206326154141568" xlink:href="#id65">May</textPath></text><path d="M 116.71984013943494 112.70617746262583 l 4.701141798800209 3.572614419418858 a26.904600579401286,26.904600579401286 0 0,0 -0.2833863920778272,0.3663151126306743 l -4.638948589504313 -3.653007526162785" fill="#ff0000" stroke="none" /><path d="M 111.45004920935366 117.60387380957326 l 24.742171934344615 38.03984284636573 a66.37846092371217,66.37846092371217 0 0,0 -0.963177380741515,0.6147453755497451 l -24.08371275155617 -38.46010265073929" fill="#35ff67" stroke="none" /><line stroke="#e1ed5e" stroke-width="0.3" x1="143.8653032363475" x2="146.44561519142675" y1="172.8068346515853" y2="177.08958963109032" /><path d="M 144.38136562736335 173.6633856474863 a86.0,86.0 0 0,1 -40.68145358897372,12.25698825130547" fill="none" id="id66" stroke="none" /><text fill="#e1ed5e" style="font-size:6.75px; font-family:Arial;" text-anchor="middle"><textPath startOffset="21.466115282336833" xlink:href="#id66">June</textPath></text><line stroke="#e1ed5e" stroke-width="0.3" x1="102.19456741930631" x2="102.32365962044197" y1="184.97166512339345" y2="189.96999836594603" /><path d="M 102.22038585953345 185.97133177190398 a86.0,86.0 0 0,1 -42.740103519485714,-10.115201625700543" fill="none" id="id67" stroke="none" /><text fill="#e1ed5e" style="font-size:6.75px; font-family:Arial;" text-anchor="middle"><textPath startOffset="22.20632615414155" xlink:href="#id67">July</textPath></text><line stroke="#e1ed5e" stroke-width="0.3" x1="58.666819895761336" x2="56.23545636021788" y1="174.27360380694188" y2="178.64263932499728" /><path d="M 58.180547188652646 175.14741091055294 a86.0,86.0 0 0,1 -31.652253787137756,-30.449443065178592" fill="none" id="id68" stroke="none" /><text fill="#e1ed5e" style="font-size:6.75px; font-family:Arial;" text-anchor="middle"><textPath startOffset="22.20632615414155" xlink:href="#id68">August</textPath></text><path d="M 89.1626897886671 117.98757091392108 l -10.86065855040497 18.026324063604093 a42.04524324864307,42.04524324864307 0 0,0 -0.6167052125946539,-0.3788307113166447 l 11.169342962931934 -17.83670488545907" fill="#ffdf14" stroke="none" /><path d="M 88.8546689885994 117.79835938074946 l -8.185677988308557 13.07198848217047 a36.423430455196296,36.423430455196296 0 0,0 -0.5285181948369819,-0.3373253179178713 l 8.409477985192462 -12.929148735428793" fill="#ff900d" stroke="none" /><line stroke="#e1ed5e" stroke-width="0.3" x1="26.63291911575756" x2="22.317208475507996" y1="142.92168965132927" y2="145.44649492493687" /><path d="M 25.769776987707644 143.4266507060508 a86.0,86.0 0 0,1 -11.730757126820373,-40.83630448921669" fill="none" id="id69" stroke="none" /><text fill="#e1ed5e" style="font-size:6.75px; font-family:Arial;" text-anchor="middle"><textPath startOffset="21.46611528233685" xlink:href="#id69">September</textPath></text><line stroke="#e1ed5e" stroke-width="0.3" x1="15.007084014347285" x2="10.007500721073583" y1="101.09737516637583" y2="101.16192664675087" /><path d="M 14.007167355692545 101.11028546245083 a86.0,86.0 0 0,1 10.666146001902534,-42.60595125391555" fill="none" id="id70" stroke="none" /><text fill="#e1ed5e" style="font-size:6.75px; font-family:Arial;" text-anchor="middle"><textPath startOffset="22.20632615414155" xlink:href="#id70">October</textPath></text><path d="M 80.2630227832202 92.82701384747504 l -9.964534755719669 -3.6213990133385003 a31.60219240118544,31.60219240118544 0 0,0 0.19020819584755103,-0.5096633993061271 l 9.90072197137049 3.792385549673969" fill="#ff4906" stroke="none" /><line stroke="#e1ed5e" stroke-width="0.3" x1="26.266209847984243" x2="21.928928074336255" y1="57.711370442889674" y2="55.22380399835377" /><path d="M 25.398753493254645 57.213857153982495 a86.0,86.0 0 0,1 29.58750427330803,-30.492523968695096" fill="none" id="id71" stroke="none" /><text fill="#e1ed5e" style="font-size:6.75px; font-family:Arial;" text-anchor="middle"><textPath startOffset="21.46611528233685" xlink:href="#id71">November</textPath></text><path d="M 84.31358615837235 86.03803664274999 l -16.25218195752192 -14.465535032877598 a42.7574153374846,42.7574153374846 0 0,0 0.49406470202198544,-0.5455585839636635 l 16.00077361488389 14.743146404110817" fill="#ffe815" stroke="none" /><path d="M 86.65592168130627 83.78471172551755 l -4.512681041328045 -5.483662657571171 a28.101749525490327,28.101749525490327 0 0,0 0.37615744219080915,-0.30415982492164084 l 4.417620200572736 5.560528579756945" fill="#ff1302" stroke="none" /><path d="M 88.39885842347998 82.49532879139004 l -5.657738179072756 -8.536819066971177 a31.241449169191835,31.241449169191835 0 0,0 0.4508185362166292,-0.2932249162887101 l 5.50995261707184 8.632942907419421" fill="#ff4306" stroke="none" /><path d="M 88.70189139769569 82.29822771554957 l -11.446194297354063 -17.933791584726986 a42.275249575438714,42.275249575438714 0 0,0 0.616777466599901,-0.3862259930015861 l 11.13579767838192 18.128161919051504" fill="#ffe215" stroke="none" /><path d="M 89.00827224532344 82.1063720568725 l -5.7227331967568364 -9.316138547644071 a31.933440111884387,31.933440111884387 0 0,0 0.4708478292764916,-0.2836805487867696 l 5.561523301262696 9.41326570588946" fill="#ff4e07" stroke="none" /><line stroke="#e1ed5e" stroke-width="0.3" x1="56.762969772571076" x2="54.21961505331055" y1="26.818313649435495" y2="22.513508569990535" /><path d="M 56.25429882871897 25.957352633546506 a86.0,86.0 0 0,1 42.265352541879196,-11.944610805530505" fill="none" id="id72" stroke="none" /><text fill="#e1ed5e" style="font-size:6.75px; font-family:Arial;" text-anchor="middle"><textPath startOffset="22.20632615414155" xlink:href="#id72">December</textPath></text><path d="M 89.3179101791058 81.91981866633112 l -9.442332829120765 -15.981806240706845 a39.562752489094606,39.562752489094606 0 0,0 0.5893027738692658,-0.3413622034871669 l 9.16583332278618 16.14197260158406" fill="#ffbd11" stroke="none" /><path d="M 90.58718382345135 81.22770947309562 l -6.371220610848145 -12.706335922699042 a35.214197995404746,35.214197995404746 0 0,0 0.5441913837472714,-0.26703234860755387 l 6.1515579600904475 12.814123431441425" fill="#ff7f0b" stroke="none" /><path d="M 90.91171255644093 81.06846463323043 l -18.185012217008126 -37.880646279009646 a63.0194958542839,63.0194958542839 0 0,0 0.9819691503064614,-0.46104768283766084 l 17.530264855402056 38.18805894448732" fill="#31ff3d" stroke="none" /><path d="M 91.23893434514133 80.91482961587045 l -4.186004554023198 -9.118823358887807 a31.03372182078519,31.03372182078519 0 0,0 0.48740363747727655,-0.21868380466103698 l 4.028418798079147 9.189527494065372" fill="#ff4006" stroke="none" /></svg>